# xmcd CD database file
#
# Track frame offsets:
#	150
#	24772
#	55650
#	82890
#	108189
#	141880
#	199406
#	226978
#	259468
#
# Disc length: 3808 seconds
#
# Revision: 0
# Processed by: cddbd v1.5.2PL0 Copyright (c) Steve Scherf et al.
# Submitted via: CDex 1.51
#
DISCID=6f0ede09
DTITLE=Maggy Scott - New York Groove
DYEAR=2007
DGENRE=Jazz
TTITLE0=Only Pegasus can fly
TTITLE1=A GoGo
TTITLE2=Also sprach Zarathustra
TTITLE3=Nardis
TTITLE4=Cromatic Funk
TTITLE5=Pleased to be forgotten
TTITLE6=Wade in the Groove
TTITLE7=Walk with me
TTITLE8=Snow Funk
EXTD=YEAR: 2007
EXTT0=
EXTT1=
EXTT2=
EXTT3=
EXTT4=
EXTT5=
EXTT6=
EXTT7=
EXTT8=
PLAYORDER=
